<?xml version="1.0" encoding="UTF-8" standalone="no"?>
<!DOCTYPE svg PUBLIC "-//W3C//DTD SVG 1.1//EN" "http://www.w3.org/Graphics/SVG/1.1/DTD/svg11.dtd">
<svg width="100%" height="100%" viewBox="0 0 346 450" version="1.1" xmlns="http://www.w3.org/2000/svg" xmlns:xlink="http://www.w3.org/1999/xlink" xml:space="preserve" xmlns:serif="http://www.serif.com/" style="fill-rule:evenodd;clip-rule:evenodd;stroke-linejoin:round;stroke-miterlimit:2;">
    <g transform="matrix(1,0,0,1,-1249.4,-1383.43)">
        <g transform="matrix(0.980789,0,0,0.989408,24.0021,14.6539)">
            <path d="M1478.81,1383.43C1352.19,1383.43 1249.4,1485.33 1249.4,1610.84C1249.4,1736.35 1352.19,1838.25 1478.81,1838.25C1440.82,1785.19 1409.98,1701.56 1409.98,1610.84C1409.98,1520.13 1440.82,1436.5 1478.81,1383.43Z" style="fill:rgb(25,25,25);"/>
        </g>
        <g transform="matrix(-0.588473,0,0,0.593645,2330.34,657.73)">
            <path d="M1478.81,1383.43C1352.19,1383.43 1249.4,1485.33 1249.4,1610.84C1249.4,1736.35 1352.19,1838.25 1478.81,1838.25C1440.82,1785.19 1409.98,1701.56 1409.98,1610.84C1409.98,1520.13 1440.82,1436.5 1478.81,1383.43Z" style="fill:rgb(25,25,25);"/>
        </g>
    </g>
</svg>
